<svg version="1.2" baseProfile="tiny-ps" xmlns="http://www.w3.org/2000/svg" viewBox="0 0 862 848" width="862" height="848">
	<title>Layer 1</title>
	<defs>
		<radialGradient id="grd1" gradientUnits="userSpaceOnUse"  cx="402.407" cy="456.681" r="166.331">
			<stop offset="0" stop-color="#fff28f"  />
			<stop offset="1" stop-color="#ffd841"  />
		</radialGradient>
		<radialGradient id="grd2" gradientUnits="userSpaceOnUse"  cx="638.425" cy="221.44" r="108.859">
			<stop offset="0.15" stop-color="#ff9d2a"  />
			<stop offset="1" stop-color="#fff28f"  />
		</radialGradient>
		<radialGradient id="grd3" gradientUnits="userSpaceOnUse"  cx="313.468" cy="229.172" r="58.252">
			<stop offset="0.166" stop-color="#ff9d2a"  />
			<stop offset="0.835" stop-color="#fff28f"  />
		</radialGradient>
		<radialGradient id="grd4" gradientUnits="userSpaceOnUse"  cx="220.963" cy="220.236" r="92.776">
			<stop offset="0.096" stop-color="#ffd638"  />
			<stop offset="0.835" stop-color="#fff28f"  />
		</radialGradient>
		<radialGradient id="grd5" gradientUnits="userSpaceOnUse"  cx="402.575" cy="121.362" r="126.227">
			<stop offset="0.15" stop-color="#ff9d2a"  />
			<stop offset="1" stop-color="#fff28f"  />
		</radialGradient>
		<radialGradient id="grd6" gradientUnits="userSpaceOnUse"  cx="115.891" cy="479.926" r="108.057">
			<stop offset="0.15" stop-color="#ffd638"  />
			<stop offset="1" stop-color="#fffce8"  />
		</radialGradient>
		<radialGradient id="grd7" gradientUnits="userSpaceOnUse"  cx="142.61" cy="359.678" r="149.874">
			<stop offset="0.15" stop-color="#ff9d2a"  />
			<stop offset="0.835" stop-color="#fff28f"  />
		</radialGradient>
		<radialGradient id="grd8" gradientUnits="userSpaceOnUse"  cx="514.671" cy="182.404" r="108.988">
			<stop offset="0.096" stop-color="#ffd638"  />
			<stop offset="0.683" stop-color="#fff7c1"  />
		</radialGradient>
		<radialGradient id="grd9" gradientUnits="userSpaceOnUse"  cx="139.872" cy="613.344" r="106.6">
			<stop offset="0.059" stop-color="#ff9d2a"  />
			<stop offset="1" stop-color="#fff28f"  />
		</radialGradient>
		<radialGradient id="grd10" gradientUnits="userSpaceOnUse"  cx="666.425" cy="581.727" r="113.318">
			<stop offset="0.096" stop-color="#ffd638"  />
			<stop offset="0.683" stop-color="#fff7c1"  />
		</radialGradient>
		<radialGradient id="grd11" gradientUnits="userSpaceOnUse"  cx="586.249" cy="667.305" r="129.791">
			<stop offset="0.15" stop-color="#ff9d2a"  />
			<stop offset="1" stop-color="#fff28f"  />
		</radialGradient>
		<radialGradient id="grd12" gradientUnits="userSpaceOnUse"  cx="736.824" cy="471.465" r="124.346">
			<stop offset="0.15" stop-color="#ff9d2a"  />
			<stop offset="1" stop-color="#fff28f"  />
		</radialGradient>
		<radialGradient id="grd13" gradientUnits="userSpaceOnUse"  cx="676.028" cy="391.616" r="45.724">
			<stop offset="0.096" stop-color="#ffd638"  />
			<stop offset="0.683" stop-color="#fff7c1"  />
		</radialGradient>
		<radialGradient id="grd14" gradientUnits="userSpaceOnUse"  cx="253.204" cy="700.283" r="98.792">
			<stop offset="0" stop-color="#ffd638"  />
			<stop offset="1" stop-color="#fffce8"  />
		</radialGradient>
		<radialGradient id="grd15" gradientUnits="userSpaceOnUse"  cx="406.9" cy="770.048" r="85.887">
			<stop offset="0" stop-color="#ff9d2a"  />
			<stop offset="1" stop-color="#fff28f"  />
		</radialGradient>
		<radialGradient id="grd16" gradientUnits="userSpaceOnUse"  cx="514.681" cy="746.711" r="205.84">
			<stop offset="0.027" stop-color="#fff7c1"  />
			<stop offset="0.754" stop-color="#ffd638"  />
		</radialGradient>
	</defs>
	<style>
		tspan { white-space:pre }
		.shp0 { fill: url(#grd1) } 
		.shp1 { fill: url(#grd2) } 
		.shp2 { fill: url(#grd3) } 
		.shp3 { fill: url(#grd4) } 
		.shp4 { fill: url(#grd5) } 
		.shp5 { fill: url(#grd6) } 
		.shp6 { fill: url(#grd7) } 
		.shp7 { fill: #de8b2c;stroke: #dec83a;stroke-width: 2 } 
		.shp8 { fill: url(#grd8) } 
		.shp9 { fill: url(#grd9) } 
		.shp10 { fill: url(#grd10) } 
		.shp11 { fill: url(#grd11) } 
		.shp12 { fill: url(#grd12) } 
		.shp13 { fill: url(#grd13) } 
		.shp14 { fill: url(#grd14) } 
		.shp15 { fill: url(#grd15) } 
		.shp16 { fill: url(#grd16) } 
		.shp17 { fill: #dec83a } 
	</style>
	<g id="Layer 1">
		<g id="&lt;Group&gt;">
			<path id="&lt;Path&gt;" class="shp0" d="M536.26 582.96C466.51 656.89 350.05 660.28 276.12 590.53C202.2 520.79 198.81 404.32 268.56 330.4C338.3 256.47 454.76 253.09 528.69 322.83C602.61 392.57 606 509.04 536.26 582.96Z" />
			<path id="&lt;Path&gt;" class="shp1" d="M581.48 293.9C634.48 277.09 696.24 241.31 714.14 185.2C718.97 170.06 721.86 145.25 700.23 143.11C681.92 141.3 663.7 153.6 649.54 163.81C611.72 191.05 569.34 230.66 563.8 279.38C563.01 286.3 563.3 292.76 564.46 298.77C570.23 297.3 575.93 295.66 581.48 293.9Z" />
			<path id="&lt;Path&gt;" class="shp2" d="M328.11 223.87C325.38 211.77 311.36 186.35 295.14 188.47C283.76 202.17 300.63 233.9 307.28 245.62C312.13 254.16 318.16 263.02 325.29 270.82C330.66 255.99 331.32 238.03 328.11 223.87Z" />
			<path id="&lt;Path&gt;" class="shp3" d="M209.43 166.52C203.65 159.71 196.12 152.33 187.06 150.34C186.61 150.25 182.79 150.13 180.36 150.2C180.36 150.2 180.36 150.21 180.36 150.21C179.58 151.32 178.65 152.28 177.93 153.46C168.83 168.27 175.4 187.88 181.75 202.29C190.33 221.76 201.19 240.46 214.28 257.25C225.55 271.69 239.19 285.94 255.89 294.15C255.02 276.39 251.98 258.78 247.62 242.88C240.21 215.87 227.65 187.99 209.43 166.52Z" />
			<path id="&lt;Path&gt;" class="shp4" d="M448.03 164.66C450.41 138.92 448.18 112.77 441.35 87.83C434.9 64.26 426.24 39.25 411.33 19.54C404.13 10.02 393.37 -0.46 380.37 0.76C379.21 0.87 378.07 1.27 376.93 1.38C375.41 2.65 373.36 4.34 373.06 4.66C368.87 9.05 365.77 14.41 363.38 19.96C350.17 50.6 357.13 88.38 363.39 119.81C371.68 161.45 384.93 209.85 415.71 240.91C418.03 243.25 420.52 245.39 423.12 247.38C437.54 222.2 445.43 192.65 448.03 164.66Z" />
			<path id="&lt;Path&gt;" class="shp5" d="M81.47 444.35C72.17 443.75 62.7 443.63 53.47 445.1C49.41 445.75 45.39 446.7 41.49 448.03C40.82 448.26 38.64 449.21 37.11 449.85C36.18 450.43 35.18 451.07 34.76 451.39C25.08 458.76 19.3 470.49 25.32 482.11C34.66 500.15 60.08 507.48 78.1 511.94C104.87 518.58 132.2 519.24 158.94 512.01C180.03 506.3 199.89 495.91 214.38 479.35C211.71 477.77 208.99 476.31 206.2 475.03C168.01 457.61 123.28 447.03 81.47 444.35Z" />
			<path id="&lt;Path&gt;" class="shp6" d="M154.76 303.35C126.12 289.07 63.96 270.84 55.89 318.6C49.23 358.02 89.35 389.65 122.01 401.11C144.99 409.17 170.27 410.93 194.18 406.33C206.26 404 216.55 399.8 225.55 391.89C215.86 354.04 191.33 321.58 154.76 303.35Z" />
			<path id="&lt;Path&gt;" class="shp7" d="M178.36 150.49C178.6 150.97 179.12 150.73 179.69 150.23C178.84 150.28 178.29 150.36 178.36 150.49Z" />
			<path id="&lt;Path&gt;" class="shp8" d="M500.44 251.99C502.86 250.23 505.18 248.34 507.43 246.37C516.17 238.72 523.66 229.71 530.28 220.19C544.59 199.61 558.1 174.9 560.41 149.59C561.86 133.73 557.11 113.61 539.05 109.96C535.59 109.26 531.97 109.33 528.51 109.98C526.93 110.28 525.33 110.69 523.82 111.25C521.68 112.06 523.81 110.9 521.06 113.12C512.82 119.76 506.94 128.73 502.87 138.43C497.02 152.37 494.09 168 491.15 182.77C488.3 197.11 486.18 211.78 486.51 226.43C486.75 237.21 488.62 247.48 492.21 256.99C492.74 256.77 493.27 256.55 493.78 256.32C492.98 256.51 499.12 252.95 500.44 251.99Z" />
			<path id="&lt;Path&gt;" class="shp9" d="M130.27 569C105.76 569.11 81.07 573.53 63.54 589.27C50.59 600.91 41.55 618.41 47.16 635.95C60.85 678.73 127.53 673.3 160.36 662.78C192.07 652.62 218.86 629.74 238.73 603.41C240.84 600.6 242.82 597.69 244.68 594.71C209.46 577.87 168.29 568.83 130.27 569Z" />
			<path id="&lt;Path&gt;" class="shp10" d="M741.61 644.58C754.82 628.06 751.66 604.64 738.53 589.01C728.63 577.24 713.28 569.74 699.55 563.5C667.66 549.02 628.96 536.89 593.12 538.57C605.61 561.8 621.87 583.8 639.04 603.4C657.89 624.91 712.09 681.5 741.61 644.58Z" />
			<path id="&lt;Path&gt;" class="shp11" d="M603.96 718.07C609.49 722.53 615.91 726.83 623.01 728.16C625.85 728.7 628.78 728.78 631.6 728.07C633.15 727.68 634.49 726.97 635.93 726.33C636.31 726.17 636.74 725.85 637.15 725.51C637.73 724.4 638.68 722.75 638.92 722.23C639.76 720.32 640.33 718.31 640.73 716.26C641.47 712.43 641.45 708.5 641.01 704.63C639.75 693.76 635.06 683.38 629.54 674.06C611.31 643.31 574.03 606.43 535 604.35C538.64 616.26 544.04 627.75 549.34 638.79C563.23 667.69 578.45 697.49 603.96 718.07Z" />
			<path id="&lt;Path&gt;" class="shp12" d="M719.64 497.47C747.71 503.2 776.45 505 805.04 503.64C815.43 503.15 825.85 502.34 836.18 501.1C845.42 499.99 856.98 498.53 860.7 488.48C868.3 467.93 828.97 458.77 815.7 455.6C757.58 441.74 693.94 443.35 635.46 453.84C629.03 455.25 622.7 457.44 616.61 459.91C615.47 460.37 614.36 460.86 613.24 461.35C618.9 465.62 625.55 468.97 632.54 471.76C660.21 482.79 690.49 491.52 719.64 497.47Z" />
			<path id="&lt;Path&gt;" class="shp13" d="M708.33 414.95C719.69 412.56 726.53 410.98 733.71 403.04C737.99 398.31 740.89 392.2 739.42 385.74C736.06 371.04 716.66 365.18 703.85 363.29C678.83 359.6 650.85 366.02 629.94 380.07C621.53 385.71 612.98 392.83 606.59 401.19C611.44 404.19 616.57 406.75 621.89 408.8C648.14 418.87 680.87 420.71 708.33 414.95Z" />
			<path id="&lt;Path&gt;" class="shp7" d="M639.1 452.04C637.93 452.84 636.74 453.56 635.46 453.84C636.73 453.61 637.92 452.87 639.1 452.04Z" />
			<path id="&lt;Path&gt;" class="shp14" d="M205.61 682.72C184.68 704.81 161.62 749.03 203.94 762.57C241.72 774.65 285.53 750.8 302.89 717.21C313.09 697.48 318.27 668.52 309.59 647.38C309.14 646.31 308.65 645.26 308.14 644.23C297.09 642.41 285.84 641.97 274.68 643.36C246.75 646.84 224.62 662.66 205.61 682.72Z" />
			<path id="&lt;Path&gt;" class="shp15" d="M380.64 814.17C381.74 826.39 384.42 841.51 396.06 847.93C396.19 848.01 396.4 848.06 396.63 848.11C398.68 846.46 401.14 845.3 403.13 843.44C409.9 837.11 414.89 828.62 418.67 820.24C435.54 782.89 432.48 736.37 422.5 697.57C421.89 695.22 421.25 692.8 420.57 690.36C392.4 723.09 376.86 772.47 380.64 814.17Z" />
			<path id="&lt;Path&gt;" class="shp16" d="M518.87 830.74C522.96 834.87 528.02 838.4 533.87 839.33C536.51 839.75 538.88 839.34 541.49 839.06C541.6 839.05 542.08 838.91 542.63 838.74C550.23 831.32 556.19 823.36 558.5 812.69C561.76 797.66 557.25 780.4 553.22 765.96C542.28 726.73 522.85 684.52 493.85 655.28C491.23 652.64 488.51 650.25 485.69 648.09C477.76 686.79 480.49 727.59 490.07 765.68C495.57 787.59 502.41 814.13 518.87 830.74Z" />
			<path id="&lt;Path&gt;" class="shp17" d="M614.16 342.02C623.95 331.11 635.54 321.88 647.44 313.38C659.69 304.62 672.53 295.23 686.33 289.08C695.94 284.8 706.37 282.29 716.92 283.08C720.44 283.35 718.1 282.74 720.21 283.62C721.7 284.23 723.14 285.04 724.5 285.9C727.47 287.79 730.15 290.22 732.2 293.1C742.86 308.13 732.55 326.04 720.63 336.61C701.62 353.48 674.85 362.23 650.34 367.44C638.99 369.85 627.36 371.28 615.76 370.88C612.77 370.78 609.78 370.56 606.82 370.19C605.2 369.98 598.28 368.37 599 368.79C599.4 368.92 599.8 369.1 600.21 369.23C599.49 369 599.13 368.86 599 368.79C598.46 368.6 597.93 368.4 597.4 368.2C597.29 368.46 597.17 368.72 597.06 368.98C615.46 374.34 635.91 374.43 653.69 371.31C674.38 367.68 695.67 360.99 713.99 350.64C728.03 342.7 744.4 330.02 746.18 312.64C748.7 288.07 717.78 278.68 698.22 280.5C675.59 282.61 655.64 297.98 637.79 310.73C619.9 323.53 601.89 338.33 591.1 357.89C590 359.87 589.04 361.87 588.16 363.88C591.13 365.56 594.22 367 597.4 368.2C601.28 358.81 606.96 350.04 614.16 342.02Z" />
			<path id="&lt;Compound Path&gt;" fill-rule="evenodd" class="shp17" d="M509.04 823.59C497.77 821.35 485.71 817.63 477.43 809.34C466.28 798.17 462.33 780.55 459.97 765.55C456.34 742.37 456.85 718.55 459.2 695.28C461.14 676.11 463.42 654.78 469.24 635.58C467.21 634.17 465.11 632.85 462.91 631.7C462.11 631.28 460.36 630.81 459.4 630.21C449.49 631.51 441.41 632.69 432.5 638.02C427.46 641.05 422.82 644.63 418.49 648.56C430.96 668.43 431.33 696.13 426.86 719.1C422.43 741.89 414.38 765.24 400.05 783.79C391.17 795.28 378.19 806.48 362.67 803.83C354.35 802.41 344.12 799.88 339.53 792.18C333.13 781.42 336.71 766.25 339.96 755.1C347.82 728.2 362.55 705.23 378.6 682.67C386.39 671.72 396.53 657.11 408.62 645.66C405.94 641.72 402.8 638.03 399.09 634.68C396.31 632.17 393.28 629.94 390.05 628.05C388.43 627.1 386.77 626.23 385.05 625.48C384.97 625.44 384.86 625.41 384.77 625.37C382.28 625.26 377.12 624.53 376.07 624.64C374.47 624.79 372.89 625.13 371.33 625.49C359.59 628.2 348.39 634.02 338.12 640.16C336.4 641.19 334.72 642.27 333.03 643.35C336.91 656.9 335.93 671.99 334.2 685.73C329.7 721.63 317.56 758.03 299.81 789.55C288.77 809.15 274.43 828.75 249.92 829.52C232.11 830.08 214.91 821.41 214.36 802C213.8 782.24 223.7 762.26 232.42 745.15C243.03 724.35 255.89 704.64 271.08 686.89C286.02 669.46 303.45 653.27 323.03 640.77C319.95 630.54 314.27 621.49 305.18 613.99C287.1 599.09 263.9 600.4 242.47 608C241.09 608.49 239.72 609.01 238.34 609.56C237.49 633.34 230 658.33 222.01 679.02C215.33 696.3 206.59 713.14 194.64 727.39C185.49 738.29 172.36 750.81 157.81 753.65C151.63 754.86 142.13 753.06 136.81 749.54C128.22 743.84 129.67 730.13 131.26 721.51C138.42 682.64 167.95 647.33 198.69 624.27C208.04 617.25 217.9 611.61 228.13 607.59C228.91 597.81 228.75 587.77 225.86 578.75C222.12 567.09 216.91 555.44 211.13 544.68C209.21 541.11 207.15 537.61 204.96 534.2C197.07 550.65 180.79 562.92 165.32 571.54C138.26 586.62 105.86 582.07 77.91 571.99C54.33 563.49 18.87 539.98 27 509.82C30.31 497.54 42.86 490.19 53.97 486.05C73.6 478.75 95.58 478.37 116.18 480.28C147.58 483.19 177.81 494.5 199.67 517.53C202.46 500.29 197.27 481.85 192.68 465.47C191.21 460.22 189.51 454.98 187.62 449.77C154.55 457.05 117.94 451.83 86.64 441.55C66.15 434.82 47.06 423.95 31.23 409.28C17.78 396.81 4.32 380.93 0.97 362.36C-1.55 348.39 2.53 333.87 13.64 324.63C27 313.51 45.86 312.69 62.2 315.89C96.59 322.62 123.65 341.58 146.35 367.97C165.21 389.88 181.83 415.41 193.28 442.57C208.09 437.41 221.53 428.86 231 415.9C245.87 395.54 249.64 367.64 243.5 343.18C236.23 343.12 228.95 342.25 222.04 340.94C188.08 334.52 155.91 319.37 131.78 294.24C116.16 277.96 101.89 256.91 95.13 235.2C91.63 223.97 89.65 208.94 99.21 199.98C113.94 186.15 143.42 197.65 157.64 207.01C171.81 216.35 183.31 229.83 193.8 242.99C206.44 258.86 217.84 275.76 228.22 293.18C236.95 307.83 245.6 322.81 250.84 338.79C265.68 335.41 276.94 326.47 287.62 315.29C296.25 306.25 303.61 296.35 309.6 285.83C281.46 281.87 255.04 264.23 237.05 243.36C213.79 216.38 198.33 176.86 208.68 141.3C216.17 115.58 237.43 98.74 264.45 105.56C276.35 108.57 287.02 112.75 296.41 120.98C314.34 136.68 325.56 160.09 332.38 182.52C342.82 216.85 338.17 252.51 322.12 283.3C331.17 282.07 339.97 279.23 348.19 275.25C365.31 266.95 380.97 254.16 394.55 239.32C383.82 219.91 382.83 194.8 385.37 171.69C387.41 153.19 391.62 134.87 397.51 117.22C402.35 102.71 408.56 87 422.05 78.39C429.74 73.49 437.17 73.86 445.2 76.25C446.15 76.14 446.68 76.1 445.92 76.47C446.68 76.71 447.44 76.95 448.21 77.22C460.64 81.54 463 95.51 462.97 107.24C462.87 150.95 441.1 196.81 413.81 230.08C410.55 234.05 407.12 238.05 403.53 241.97C413.01 259.32 432.38 273.24 452.55 268.98C454.01 268.67 455.46 268.27 456.91 267.82C456.01 252.53 458.57 236.84 462.99 222.45C466.91 209.7 476.26 179.75 493.67 180.53C502.34 180.91 511.26 185.18 514.86 193.2C522.83 210.96 513.92 232.22 501.71 245.52C492.08 256 480.26 266.27 466.39 270.53C466.94 281.46 469.31 292.14 474.58 301.36C478.7 308.6 484.7 313.77 492.26 317.15C494.8 318.29 500.63 319.34 494.77 318.42C497.21 318.8 499.62 319.33 502.08 319.62C505.94 320.08 509.83 320.26 513.72 320.24C524.34 320.18 534.91 318.75 545.29 316.19C540.59 295.32 544.81 272.54 551.87 251.31C563.76 215.57 583.01 181.81 605.24 151.53C619.94 131.51 637.43 110.24 661.96 102.36C675.58 97.99 697.27 99.84 705.92 112.95C712.23 122.52 711.76 135.45 710.15 146.29C707.17 166.41 699.02 185.79 690.19 203.97C671.69 242.07 643 274.38 606.73 296.4C590.99 305.95 573.14 314.22 554.63 318.89C558.56 335.3 568.16 350.16 582.15 360.12C584.07 361.49 586.09 362.72 588.16 363.88C591.13 365.56 594.22 367 597.4 368.2C597.29 368.46 597.17 368.72 597.06 368.98C592.09 381.36 590.23 394.79 592.16 408.97C594.61 427.01 601.55 444.52 610.27 460.81C627.99 454.92 648.85 455.81 667.81 460.45C701.35 468.66 732.11 483.6 760.25 503.56C772.57 512.3 784.95 521.79 794.86 533.28C803.03 542.74 814.65 559.48 806.3 572.2C796.57 587.01 770.5 583.66 755.97 581.22C742.02 578.89 727.8 574.76 714.78 569.3C671.38 551.1 635.83 515.17 611 475.85C609.64 473.7 608.29 471.51 606.96 469.28C582.29 485.39 574.36 518.13 581.16 548.03C611.45 546.39 647.5 558.32 670.97 576.21C683.21 585.54 694.82 598.1 699.64 613.04C702.77 622.74 702.58 634.81 692.45 640.17C682.51 645.42 670.61 641.76 660.53 638.88C642.54 633.73 627.06 623.11 613.52 610.37C596.89 594.71 581.82 575.05 574.07 553.49C565.11 556.28 557.12 561.34 551.52 569.83C545.34 579.19 544.03 588.98 545.48 598.77C556.9 602.13 567.8 607.09 576.67 612.39C618.69 639.72 657.14 673.72 688.77 712.64C700.56 727.15 712.34 742.85 719.75 760.14C725.33 773.16 728.25 794.42 707.96 793.38C696.56 792.8 683.63 787.56 674.43 781.24C658.89 770.56 644.28 757.89 630.68 744.87C594.39 710.12 566.75 666.46 544.62 621.55C540.93 614.07 537.4 605.97 535.83 597.67C534.7 597.51 533.57 597.32 532.43 597.2C526.02 596.54 519.45 596.66 513.16 598.17C496.82 602.09 486.59 615.11 481.64 630.6C480.76 633.36 479.94 636.15 479.14 638.96C492.14 647.58 502.7 659.82 512.34 672.79C532.06 699.34 549.94 730.87 557.26 763.4C564.24 794.4 545.16 830.77 509.04 823.59ZM545.69 600.01C546.9 607.01 549.45 613.99 552.64 620.82C565.25 647.8 581.35 674.9 598.52 699.19C615.05 722.58 634.77 743.57 656.54 762.15C664.45 768.91 672.6 775.45 680.97 781.62C688.47 787.14 697.9 793.99 707.49 789.21C727.1 779.44 704.7 745.83 697.2 734.44C664.32 684.54 616.84 642.14 567.03 609.75C568.12 610.46 569.49 610.73 570.91 610.94C569.52 610.72 568.16 610.43 567.03 609.75C561.38 606.38 555.26 603.64 549.13 601.27C548 600.83 546.84 600.42 545.69 600.01ZM582.04 551.61C583.52 557.12 585.5 562.5 587.98 567.63C600.22 592.95 622.81 616.7 646.77 631.29C656.69 637.33 662.75 640.86 673.42 639.99C679.78 639.48 686.08 637.01 689.43 631.29C697.04 618.28 686.91 600.72 678.87 590.57C663.16 570.76 638.38 556.28 613.51 552.2C603.52 550.56 592.42 549.9 582.04 551.61ZM613.05 465.84C615.98 471.03 619.07 476.08 622.23 480.98C652.43 527.67 703.24 577.8 762.08 580.26C777.96 580.92 802.64 577.17 799 555.74C795.92 537.6 779.25 523.28 765.67 512.3C729.42 483.01 680.03 452.59 631.57 460.09C624.69 461.16 618.54 463.14 613.05 465.84ZM553.61 313.89C581.37 305.41 607.35 289.28 628.4 270.65C647.76 253.52 664.04 232.93 676.13 210.08C687.57 188.48 698.39 164.33 701.01 139.76C702.28 127.88 701.61 112.87 691.3 104.87C690.38 104.16 689.28 103.67 688.37 102.97C686.39 102.85 683.74 102.68 683.3 102.71C677.24 103.03 671.31 104.82 665.77 107.23C635.17 120.52 614.37 152.82 597.42 180.02C574.96 216.04 551.47 260.39 552.65 304.1C552.74 307.4 553.08 310.66 553.61 313.89ZM690.58 103.07C690.57 103.1 689.64 103.04 688.44 102.97C689.34 103.44 690.28 103.72 690.58 103.07ZM466.26 264C480.33 256.86 493.1 244.23 500.46 231.71C506.75 221.02 513.94 192.89 500.67 183.33C482.99 185.53 473.56 220.2 470.39 233.3C468.07 242.85 466.4 253.43 466.26 264ZM442.7 76.42C442.05 75.87 441.59 75.55 441.54 75.69C441.4 76.21 441.94 76.39 442.7 76.42ZM399.7 233.49C411.23 219.94 421.07 205.04 428.78 190.45C441.87 165.7 451.8 136.78 453.22 108.65C453.67 99.73 453.24 89.2 447.99 81.54C447.73 81.17 445.03 78.47 443.21 76.86C443.2 76.86 443.2 76.86 443.2 76.86C441.87 77.14 440.54 77.21 439.21 77.57C422.43 82.13 413.79 100.92 408.55 115.78C401.48 135.84 396.59 156.9 394.64 178.1C392.96 196.35 393.15 216.07 399.7 233.49ZM310.67 283.95C329.52 249.73 333.87 209.27 319.69 170.95C308.59 140.94 275.77 85.09 237.19 114.38C205.34 138.55 212.93 189.07 228.89 219.78C240.13 241.4 257.34 259.99 277.92 273C288.32 279.57 298.69 283.56 310.67 283.95ZM242.65 340.06C241.79 337.08 240.81 334.15 239.65 331.31C223.74 292.47 198.38 254.13 169.74 223.55C163.36 216.74 156.55 210.17 148.81 204.93C145.41 202.62 141.83 200.56 138.08 198.86C137.43 198.57 135.19 197.77 133.64 197.19C132.56 196.98 131.4 196.75 130.88 196.7C118.77 195.44 106.53 200.04 102.96 212.63C97.42 232.17 110.93 254.92 121 270.51C135.97 293.67 155.44 312.87 179.88 325.9C199.16 336.18 220.75 342.2 242.65 340.06ZM185.75 444.88C171.62 408.49 147.79 373.73 119.97 347.82C102.03 331.11 81.01 317.43 57.45 316.91C40.04 316.52 21.48 323.08 13.56 339.71C-5.75 380.27 46.56 421.97 77.69 436.77C107.76 451.07 142.95 452.74 175.46 447.15C178.92 446.55 182.36 445.79 185.75 444.88ZM198.1 524.42C191.29 515.53 183.4 507.51 174.32 500.88C151.58 484.3 124.61 480.67 97.02 482.28C66.64 484.05 19.56 500.5 41.14 539.34C60.4 574.01 108.66 586.62 144.31 574.02C165.26 566.63 188.86 549.06 197 527.71C197.42 526.62 197.77 525.52 198.1 524.42ZM147.21 752.39C147.48 752.57 147.68 752.74 147.74 752.9C147.66 752.67 147.46 752.51 147.21 752.39ZM227.44 614.51C188.95 634.09 155.83 673.87 143.48 713.88C139.87 725.6 136.6 740.6 144.92 750.97C145.02 751.09 145.19 751.22 145.39 751.35C147.91 750.6 150.62 750.47 153.17 749.5C161.84 746.22 169.68 740.25 176.36 733.94C206.15 705.79 220.99 661.59 226.48 621.92C226.82 619.5 227.15 617.03 227.44 614.51ZM236.39 826.99C237.07 827.32 237.71 827.62 237.71 827.61C237.8 827.31 237.17 827.12 236.39 826.99ZM324.87 648.8C292.6 671.58 266.65 703.19 247.56 737.5C236.57 757.24 223.39 781.27 224.01 804.64C224.16 810.46 225.43 816.49 229.06 821.18C230.7 823.29 232.7 824.61 234.8 826.2C234.88 826.26 235.33 826.49 235.85 826.74C246.46 826.54 256.26 824.81 265.25 818.62C277.91 809.89 286.45 794.23 293.4 780.95C312.29 744.86 327.02 700.79 325.9 659.62C325.8 655.91 325.46 652.3 324.87 648.8ZM413.23 653.66C404.56 662.6 397.11 672.87 390 682.84C371.39 708.96 352.63 736.67 346.93 768.95C345.69 775.94 345.02 783.64 347.28 790.5C348.19 793.25 349.53 795.85 351.51 797.98C352.6 799.15 353.87 799.98 355.12 800.94C355.45 801.18 355.94 801.41 356.43 801.6C357.68 801.58 359.59 801.62 360.16 801.56C362.24 801.38 364.28 800.91 366.26 800.27C369.97 799.08 373.41 797.16 376.58 794.9C385.49 788.55 392.32 779.44 397.82 770.1C415.95 739.3 430.26 688.84 413.23 653.66ZM469.82 633.66C471.26 629.14 472.9 624.75 474.79 620.55C486.11 595.36 511.08 591.39 535.6 596.31C534.58 590.05 534.72 583.7 536.8 577.42C542.25 560.97 556.3 551.71 572.55 548.92C567.29 531.79 566.78 513.58 573.85 495.3C579.96 479.51 590.64 469.35 603.57 463.43C586.74 433.64 574.21 397.9 587.41 365.6C578 361.68 569.42 356.12 562.41 348.61C554.44 340.07 549.34 330.63 546.44 320.69C535.21 322.83 523.83 323.58 512.59 322.37C503.49 321.38 493.99 318.97 485.44 315.68C470.8 310.04 462.6 298.28 459.1 283.22C458.26 279.64 457.67 275.99 457.28 272.31C446.22 273.31 433.89 270.02 423.87 265.7C413.19 261.1 405.16 254.5 399.21 246.57C380.43 266.03 357.48 282.91 330.66 286.12C327.21 286.54 323.76 286.71 320.32 286.67C315.75 294.9 310.38 302.76 304.24 310.12C295.03 321.17 283.63 333.39 269.96 338.77C264.26 341.01 258.22 342.28 252.07 342.84C254.61 351.68 256.05 360.82 255.81 370.4C255 401.78 239.25 429.87 209.81 442.65C205.12 444.69 200.3 446.39 195.39 447.8C198.39 455.42 201 463.15 203.1 470.97C207.83 488.56 213.17 508.1 208.02 526.21C207.94 526.49 207.83 526.76 207.75 527.04C215.51 537.18 221.81 548.41 226.99 560.07C230.7 568.41 235.06 577.44 236.77 586.46C237.85 592.18 238.36 598.11 238.41 604.14C257.35 598.85 277.33 599.17 297.44 606.66C311.37 611.85 324.1 622.6 330.42 636.28C335.37 633.45 340.44 630.84 345.63 628.53C358.18 622.95 369.28 621.3 381.3 623.8C380.98 623.59 381.25 623.69 381.81 623.92C385.52 624.72 389.31 625.91 393.27 627.51C401.53 630.86 408.08 635.69 413.24 641.54C425.34 631.39 439.21 624.94 454.51 628.32C455.92 628.64 457.29 629 458.65 629.39C458.75 629.42 458.85 629.44 458.95 629.47C462.76 630.57 466.36 632 469.82 633.66ZM513.82 821.45C534.75 818.45 548.49 799.22 549.61 778.85C550.46 763.48 544.4 747.5 538.66 733.56C525.33 701.17 505.44 665.84 478.16 642.52C471.36 668.01 468.15 695.17 467.25 721.22C466.26 749.8 467.02 828.15 513.82 821.45Z" />
			<path id="&lt;Path&gt;" class="shp17" d="M493.78 256.32C493.93 256.28 494.28 256.14 494.97 255.81C494.58 256 494.17 256.14 493.78 256.32Z" />
		</g>
	</g>
</svg>