<svg version="1.2" baseProfile="tiny-ps" xmlns="http://www.w3.org/2000/svg" viewBox="0 0 1029 1109" width="1029" height="1109">
	<title>Layer 1</title>
	<defs>
		<radialGradient id="grd1" gradientUnits="userSpaceOnUse"  cx="500.407" cy="456.681" r="166.331">
			<stop offset="0" stop-color="#fff28f"  />
			<stop offset="1" stop-color="#ffd841"  />
		</radialGradient>
		<radialGradient id="grd2" gradientUnits="userSpaceOnUse"  cx="736.425" cy="221.44" r="108.859">
			<stop offset="0.15" stop-color="#ff9d2a"  />
			<stop offset="1" stop-color="#fff28f"  />
		</radialGradient>
		<radialGradient id="grd3" gradientUnits="userSpaceOnUse"  cx="411.468" cy="229.172" r="58.252">
			<stop offset="0.166" stop-color="#ff9d2a"  />
			<stop offset="0.835" stop-color="#fff28f"  />
		</radialGradient>
		<radialGradient id="grd4" gradientUnits="userSpaceOnUse"  cx="318.963" cy="220.236" r="92.776">
			<stop offset="0.096" stop-color="#ffd638"  />
			<stop offset="0.835" stop-color="#fff28f"  />
		</radialGradient>
		<radialGradient id="grd5" gradientUnits="userSpaceOnUse"  cx="500.575" cy="121.362" r="126.227">
			<stop offset="0.15" stop-color="#ff9d2a"  />
			<stop offset="1" stop-color="#fff28f"  />
		</radialGradient>
		<radialGradient id="grd6" gradientUnits="userSpaceOnUse"  cx="213.891" cy="479.926" r="108.057">
			<stop offset="0.15" stop-color="#ffd638"  />
			<stop offset="1" stop-color="#fffce8"  />
		</radialGradient>
		<radialGradient id="grd7" gradientUnits="userSpaceOnUse"  cx="240.61" cy="359.678" r="149.874">
			<stop offset="0.15" stop-color="#ff9d2a"  />
			<stop offset="0.835" stop-color="#fff28f"  />
		</radialGradient>
		<radialGradient id="grd8" gradientUnits="userSpaceOnUse"  cx="612.671" cy="182.404" r="108.988">
			<stop offset="0.096" stop-color="#ffd638"  />
			<stop offset="0.683" stop-color="#fff7c1"  />
		</radialGradient>
		<radialGradient id="grd9" gradientUnits="userSpaceOnUse"  cx="237.872" cy="613.344" r="106.6">
			<stop offset="0.059" stop-color="#ff9d2a"  />
			<stop offset="1" stop-color="#fff28f"  />
		</radialGradient>
		<radialGradient id="grd10" gradientUnits="userSpaceOnUse"  cx="764.425" cy="581.727" r="113.318">
			<stop offset="0.096" stop-color="#ffd638"  />
			<stop offset="0.683" stop-color="#fff7c1"  />
		</radialGradient>
		<radialGradient id="grd11" gradientUnits="userSpaceOnUse"  cx="684.249" cy="667.305" r="129.791">
			<stop offset="0.15" stop-color="#ff9d2a"  />
			<stop offset="1" stop-color="#fff28f"  />
		</radialGradient>
		<radialGradient id="grd12" gradientUnits="userSpaceOnUse"  cx="834.824" cy="471.465" r="124.346">
			<stop offset="0.15" stop-color="#ff9d2a"  />
			<stop offset="1" stop-color="#fff28f"  />
		</radialGradient>
		<radialGradient id="grd13" gradientUnits="userSpaceOnUse"  cx="774.028" cy="391.616" r="45.724">
			<stop offset="0.096" stop-color="#ffd638"  />
			<stop offset="0.683" stop-color="#fff7c1"  />
		</radialGradient>
		<radialGradient id="grd14" gradientUnits="userSpaceOnUse"  cx="351.204" cy="700.283" r="98.792">
			<stop offset="0" stop-color="#ffd638"  />
			<stop offset="1" stop-color="#fffce8"  />
		</radialGradient>
		<radialGradient id="grd15" gradientUnits="userSpaceOnUse"  cx="504.9" cy="770.048" r="85.887">
			<stop offset="0" stop-color="#ff9d2a"  />
			<stop offset="1" stop-color="#fff28f"  />
		</radialGradient>
		<radialGradient id="grd16" gradientUnits="userSpaceOnUse"  cx="612.681" cy="746.711" r="205.84">
			<stop offset="0.027" stop-color="#fff7c1"  />
			<stop offset="0.754" stop-color="#ffd638"  />
		</radialGradient>
	</defs>
	<style>
		tspan { white-space:pre }
		.shp0 { fill: url(#grd1) } 
		.shp1 { fill: url(#grd2) } 
		.shp2 { fill: url(#grd3) } 
		.shp3 { fill: url(#grd4) } 
		.shp4 { fill: url(#grd5) } 
		.shp5 { fill: url(#grd6) } 
		.shp6 { fill: url(#grd7) } 
		.shp7 { fill: #de8b2c;stroke: #dec83a;stroke-width: 2 } 
		.shp8 { fill: url(#grd8) } 
		.shp9 { fill: url(#grd9) } 
		.shp10 { fill: url(#grd10) } 
		.shp11 { fill: url(#grd11) } 
		.shp12 { fill: url(#grd12) } 
		.shp13 { fill: url(#grd13) } 
		.shp14 { fill: url(#grd14) } 
		.shp15 { fill: url(#grd15) } 
		.shp16 { fill: url(#grd16) } 
		.shp17 { fill: #dec83a } 
		.shp18 { fill: #774927 } 
	</style>
	<g id="Layer 1">
		<g id="&lt;Group&gt;">
			<path id="&lt;Path&gt;" class="shp0" d="M634.26 582.96C564.51 656.89 448.05 660.28 374.12 590.53C300.2 520.79 296.81 404.32 366.56 330.4C436.3 256.47 552.76 253.09 626.69 322.83C700.61 392.57 704 509.04 634.26 582.96Z" />
			<path id="&lt;Path&gt;" class="shp1" d="M662.46 298.77C661.3 292.76 661.01 286.3 661.8 279.38C667.34 230.66 709.72 191.05 747.54 163.81C761.7 153.6 779.92 141.3 798.23 143.11C819.86 145.25 816.97 170.06 812.14 185.2C794.24 241.31 732.48 277.09 679.48 293.9C673.93 295.66 668.23 297.3 662.46 298.77Z" />
			<path id="&lt;Path&gt;" class="shp2" d="M423.29 270.82C416.16 263.02 410.13 254.16 405.28 245.62C398.63 233.9 381.76 202.17 393.14 188.47C409.36 186.35 423.38 211.77 426.11 223.87C429.32 238.03 428.66 255.99 423.29 270.82Z" />
			<path id="&lt;Path&gt;" class="shp3" d="M345.62 242.88C349.98 258.78 353.02 276.39 353.89 294.15C337.19 285.94 323.55 271.69 312.28 257.25C299.19 240.46 288.33 221.76 279.75 202.29C273.4 187.88 266.83 168.27 275.93 153.46C276.65 152.28 277.58 151.32 278.36 150.21C278.36 150.21 278.36 150.2 278.36 150.2C280.79 150.13 284.61 150.25 285.06 150.34C294.12 152.33 301.65 159.71 307.43 166.52C325.65 187.99 338.21 215.87 345.62 242.88Z" />
			<path id="&lt;Path&gt;" class="shp4" d="M521.12 247.38C518.52 245.39 516.03 243.25 513.71 240.91C482.93 209.85 469.68 161.45 461.39 119.81C455.13 88.38 448.17 50.6 461.38 19.96C463.77 14.41 466.87 9.05 471.06 4.66C471.36 4.34 473.41 2.65 474.93 1.38C476.07 1.27 477.21 0.87 478.37 0.76C491.37 -0.46 502.13 10.02 509.33 19.54C524.24 39.25 532.9 64.26 539.35 87.83C546.18 112.77 548.41 138.92 546.03 164.66C543.43 192.65 535.54 222.2 521.12 247.38Z" />
			<path id="&lt;Path&gt;" class="shp5" d="M304.2 475.03C306.99 476.31 309.71 477.77 312.38 479.35C297.89 495.91 278.03 506.3 256.94 512.01C230.2 519.24 202.87 518.58 176.1 511.94C158.08 507.48 132.66 500.15 123.32 482.11C117.3 470.49 123.08 458.76 132.76 451.39C133.18 451.07 134.18 450.43 135.11 449.85C136.64 449.21 138.82 448.26 139.49 448.03C143.39 446.7 147.41 445.75 151.47 445.1C160.7 443.63 170.17 443.75 179.47 444.35C221.28 447.03 266.01 457.61 304.2 475.03Z" />
			<path id="&lt;Path&gt;" class="shp6" d="M323.55 391.89C314.55 399.8 304.26 404 292.18 406.33C268.27 410.93 242.99 409.17 220.01 401.11C187.35 389.65 147.23 358.02 153.89 318.6C161.96 270.84 224.12 289.07 252.76 303.35C289.33 321.58 313.86 354.04 323.55 391.89Z" />
			<path id="&lt;Path&gt;" class="shp7" d="M276.36 150.49C276.6 150.97 277.12 150.73 277.69 150.23C276.84 150.28 276.29 150.36 276.36 150.49Z" />
			<path id="&lt;Path&gt;" class="shp8" d="M591.78 256.32C591.27 256.55 590.74 256.77 590.21 256.99C586.62 247.48 584.75 237.21 584.51 226.43C584.18 211.78 586.3 197.11 589.15 182.77C592.09 168 595.02 152.37 600.87 138.43C604.94 128.73 610.82 119.76 619.06 113.12C621.81 110.9 619.68 112.06 621.82 111.25C623.33 110.69 624.93 110.28 626.51 109.98C629.97 109.33 633.59 109.26 637.05 109.96C655.11 113.61 659.86 133.73 658.41 149.59C656.1 174.9 642.59 199.61 628.28 220.19C621.66 229.71 614.17 238.72 605.43 246.37C603.18 248.34 600.86 250.23 598.44 251.99C597.12 252.95 590.98 256.51 591.78 256.32Z" />
			<path id="&lt;Path&gt;" class="shp9" d="M342.68 594.71C340.82 597.69 338.84 600.6 336.73 603.41C316.86 629.74 290.07 652.62 258.36 662.78C225.53 673.3 158.85 678.73 145.16 635.95C139.55 618.41 148.59 600.91 161.54 589.27C179.07 573.53 203.76 569.11 228.27 569C266.29 568.83 307.46 577.87 342.68 594.71Z" />
			<path id="&lt;Path&gt;" class="shp10" d="M737.04 603.4C719.87 583.8 703.61 561.8 691.12 538.57C726.96 536.89 765.66 549.02 797.55 563.5C811.28 569.74 826.63 577.24 836.53 589.01C849.66 604.64 852.82 628.06 839.61 644.58C810.09 681.5 755.89 624.91 737.04 603.4Z" />
			<path id="&lt;Path&gt;" class="shp11" d="M647.34 638.79C642.04 627.75 636.64 616.26 633 604.35C672.03 606.43 709.31 643.31 727.54 674.06C733.06 683.38 737.75 693.76 739.01 704.63C739.45 708.5 739.47 712.43 738.73 716.26C738.33 718.31 737.76 720.32 736.92 722.23C736.68 722.75 735.73 724.4 735.15 725.51C734.74 725.85 734.31 726.17 733.93 726.33C732.49 726.97 731.15 727.68 729.6 728.07C726.78 728.78 723.85 728.7 721.01 728.16C713.91 726.83 707.49 722.53 701.96 718.07C676.45 697.49 661.23 667.69 647.34 638.79Z" />
			<path id="&lt;Path&gt;" class="shp12" d="M730.54 471.76C723.55 468.97 716.9 465.62 711.24 461.35C712.36 460.86 713.47 460.37 714.61 459.91C720.7 457.44 727.03 455.25 733.46 453.84C791.94 443.35 855.58 441.74 913.7 455.6C926.97 458.77 966.3 467.93 958.7 488.48C954.98 498.53 943.42 499.99 934.18 501.1C923.85 502.34 913.43 503.15 903.04 503.64C874.45 505 845.71 503.2 817.64 497.47C788.49 491.52 758.21 482.79 730.54 471.76Z" />
			<path id="&lt;Path&gt;" class="shp13" d="M719.89 408.8C714.57 406.75 709.44 404.19 704.59 401.19C710.98 392.83 719.53 385.71 727.94 380.07C748.85 366.02 776.83 359.6 801.85 363.29C814.66 365.18 834.06 371.04 837.42 385.74C838.89 392.2 835.99 398.31 831.71 403.04C824.53 410.98 817.69 412.56 806.33 414.95C778.87 420.71 746.14 418.87 719.89 408.8Z" />
			<path id="&lt;Path&gt;" class="shp7" d="M737.1 452.04C735.93 452.84 734.74 453.56 733.46 453.84C734.73 453.61 735.92 452.87 737.1 452.04Z" />
			<path id="&lt;Path&gt;" class="shp14" d="M372.68 643.36C383.84 641.97 395.09 642.41 406.14 644.23C406.65 645.26 407.14 646.31 407.59 647.38C416.27 668.52 411.09 697.48 400.89 717.21C383.53 750.8 339.72 774.65 301.94 762.57C259.62 749.03 282.68 704.81 303.61 682.72C322.62 662.66 344.75 646.84 372.68 643.36Z" />
			<path id="&lt;Path&gt;" class="shp15" d="M518.57 690.36C519.25 692.8 519.89 695.22 520.5 697.57C530.48 736.37 533.54 782.89 516.67 820.24C512.89 828.62 507.9 837.11 501.13 843.44C499.14 845.3 496.68 846.46 494.63 848.11C494.4 848.06 494.19 848.01 494.06 847.93C482.42 841.51 479.74 826.39 478.64 814.17C474.86 772.47 490.4 723.09 518.57 690.36Z" />
			<path id="&lt;Path&gt;" class="shp16" d="M588.07 765.68C578.49 727.59 575.76 686.79 583.69 648.09C586.51 650.25 589.23 652.64 591.85 655.28C620.85 684.52 640.28 726.73 651.22 765.96C655.25 780.4 659.76 797.66 656.5 812.69C654.19 823.36 648.23 831.32 640.63 838.74C640.08 838.91 639.6 839.05 639.49 839.06C636.88 839.34 634.51 839.75 631.87 839.33C626.02 838.4 620.96 834.87 616.87 830.74C600.41 814.13 593.57 787.59 588.07 765.68Z" />
			<path id="&lt;Path&gt;" class="shp17" d="M695.4 368.2C692.22 367 689.13 365.56 686.16 363.88C687.04 361.87 688 359.87 689.1 357.89C699.89 338.33 717.9 323.53 735.79 310.73C753.64 297.98 773.59 282.61 796.22 280.5C815.78 278.68 846.7 288.07 844.18 312.64C842.4 330.02 826.03 342.7 811.99 350.64C793.67 360.99 772.38 367.68 751.69 371.31C733.91 374.43 713.46 374.34 695.06 368.98C695.17 368.72 695.29 368.46 695.4 368.2C695.93 368.4 696.46 368.6 697 368.79C697.13 368.86 697.49 369 698.21 369.23C697.8 369.1 697.4 368.92 697 368.79C696.28 368.37 703.2 369.98 704.82 370.19C707.78 370.56 710.77 370.78 713.76 370.88C725.36 371.28 736.99 369.85 748.34 367.44C772.85 362.23 799.62 353.48 818.63 336.61C830.55 326.04 840.86 308.13 830.2 293.1C828.15 290.22 825.47 287.79 822.5 285.9C821.14 285.04 819.7 284.23 818.21 283.62C816.1 282.74 818.44 283.35 814.92 283.08C804.37 282.29 793.94 284.8 784.33 289.08C770.53 295.23 757.69 304.62 745.44 313.38C733.54 321.88 721.95 331.11 712.16 342.02C704.96 350.04 699.28 358.81 695.4 368.2Z" />
			<path id="&lt;Compound Path&gt;" fill-rule="evenodd" class="shp17" d="M607.04 823.59C595.77 821.35 583.71 817.63 575.43 809.34C564.28 798.17 560.33 780.55 557.97 765.55C554.34 742.37 554.85 718.55 557.2 695.28C559.14 676.11 561.42 654.78 567.24 635.58C565.21 634.17 563.11 632.85 560.91 631.7C560.11 631.28 558.36 630.81 557.4 630.21C547.49 631.51 539.41 632.69 530.5 638.02C525.46 641.05 520.82 644.63 516.49 648.56C528.96 668.43 529.33 696.13 524.86 719.1C520.43 741.89 512.38 765.24 498.05 783.79C489.17 795.28 476.19 806.48 460.67 803.83C452.35 802.41 442.12 799.88 437.53 792.18C431.13 781.42 434.71 766.25 437.96 755.1C445.82 728.2 460.55 705.23 476.6 682.67C484.39 671.72 494.53 657.11 506.62 645.66C503.94 641.72 500.8 638.03 497.09 634.68C494.31 632.17 491.28 629.94 488.05 628.05C486.43 627.1 484.77 626.23 483.05 625.48C482.97 625.44 482.86 625.41 482.77 625.37C480.28 625.26 475.12 624.53 474.07 624.64C472.47 624.79 470.89 625.13 469.33 625.49C457.59 628.2 446.39 634.02 436.12 640.16C434.4 641.19 432.72 642.27 431.03 643.35C434.91 656.9 433.93 671.99 432.2 685.73C427.7 721.63 415.56 758.03 397.81 789.55C386.77 809.15 372.43 828.75 347.92 829.52C330.11 830.08 312.91 821.41 312.36 802C311.8 782.24 321.7 762.26 330.42 745.15C341.03 724.35 353.89 704.64 369.08 686.89C384.02 669.46 401.45 653.27 421.03 640.77C417.95 630.54 412.27 621.49 403.18 613.99C385.1 599.09 361.9 600.4 340.47 608C339.09 608.49 337.72 609.01 336.34 609.56C335.49 633.34 328 658.33 320.01 679.02C313.33 696.3 304.59 713.14 292.64 727.39C283.49 738.29 270.36 750.81 255.81 753.65C249.63 754.86 240.13 753.06 234.81 749.54C226.22 743.84 227.67 730.13 229.26 721.51C236.42 682.64 265.95 647.33 296.69 624.27C306.04 617.25 315.9 611.61 326.13 607.59C326.91 597.81 326.75 587.77 323.86 578.75C320.12 567.09 314.91 555.44 309.13 544.68C307.21 541.11 305.15 537.61 302.96 534.2C295.07 550.65 278.79 562.92 263.32 571.54C236.26 586.62 203.86 582.07 175.91 571.99C152.33 563.49 116.87 539.98 125 509.82C128.31 497.54 140.86 490.19 151.97 486.05C171.6 478.75 193.58 478.37 214.18 480.28C245.58 483.19 275.81 494.5 297.67 517.53C300.46 500.29 295.27 481.85 290.68 465.47C289.21 460.22 287.51 454.98 285.62 449.77C252.55 457.05 215.94 451.83 184.64 441.55C164.15 434.82 145.06 423.95 129.23 409.28C115.78 396.81 102.32 380.93 98.97 362.36C96.45 348.39 100.53 333.87 111.64 324.63C125 313.51 143.86 312.69 160.2 315.89C194.59 322.62 221.65 341.58 244.35 367.97C263.21 389.88 279.83 415.41 291.28 442.57C306.09 437.41 319.53 428.86 329 415.9C343.87 395.54 347.64 367.64 341.5 343.18C334.23 343.12 326.95 342.25 320.04 340.94C286.08 334.52 253.91 319.37 229.78 294.24C214.16 277.96 199.89 256.91 193.13 235.2C189.63 223.97 187.65 208.94 197.21 199.98C211.94 186.15 241.42 197.65 255.64 207.01C269.81 216.35 281.31 229.83 291.8 242.99C304.44 258.86 315.84 275.76 326.22 293.18C334.95 307.83 343.6 322.81 348.84 338.79C363.68 335.41 374.94 326.47 385.62 315.29C394.25 306.25 401.61 296.35 407.6 285.83C379.46 281.87 353.04 264.23 335.05 243.36C311.79 216.38 296.33 176.86 306.68 141.3C314.17 115.58 335.43 98.74 362.45 105.56C374.35 108.57 385.02 112.75 394.41 120.98C412.34 136.68 423.56 160.09 430.38 182.52C440.82 216.85 436.17 252.51 420.12 283.3C429.17 282.07 437.97 279.23 446.19 275.25C463.31 266.95 478.97 254.16 492.55 239.32C481.82 219.91 480.83 194.8 483.37 171.69C485.41 153.19 489.62 134.87 495.51 117.22C500.35 102.71 506.56 87 520.05 78.39C527.74 73.49 535.17 73.86 543.2 76.25C544.15 76.14 544.68 76.1 543.92 76.47C544.68 76.71 545.44 76.95 546.21 77.22C558.64 81.54 561 95.51 560.97 107.24C560.87 150.95 539.1 196.81 511.81 230.08C508.55 234.05 505.12 238.05 501.53 241.97C511.01 259.32 530.38 273.24 550.55 268.98C552.01 268.67 553.46 268.27 554.91 267.82C554.01 252.53 556.57 236.84 560.99 222.45C564.91 209.7 574.26 179.75 591.67 180.53C600.34 180.91 609.26 185.18 612.86 193.2C620.83 210.96 611.92 232.22 599.71 245.52C590.08 256 578.26 266.27 564.39 270.53C564.94 281.46 567.31 292.14 572.58 301.36C576.7 308.6 582.7 313.77 590.26 317.15C592.8 318.29 598.63 319.34 592.77 318.42C595.21 318.8 597.62 319.33 600.08 319.62C603.94 320.08 607.83 320.26 611.72 320.24C622.34 320.18 632.91 318.75 643.29 316.19C638.59 295.32 642.81 272.54 649.87 251.31C661.76 215.57 681.01 181.81 703.24 151.53C717.94 131.51 735.43 110.24 759.96 102.36C773.58 97.99 795.27 99.84 803.92 112.95C810.23 122.52 809.76 135.45 808.15 146.29C805.17 166.41 797.02 185.79 788.19 203.97C769.69 242.07 741 274.38 704.73 296.4C688.99 305.95 671.14 314.22 652.63 318.89C656.56 335.3 666.16 350.16 680.15 360.12C682.07 361.49 684.09 362.72 686.16 363.88C689.13 365.56 692.22 367 695.4 368.2C695.29 368.46 695.17 368.72 695.06 368.98C690.09 381.36 688.23 394.79 690.16 408.97C692.61 427.01 699.55 444.52 708.27 460.81C725.99 454.92 746.85 455.81 765.81 460.45C799.35 468.66 830.11 483.6 858.25 503.56C870.57 512.3 882.95 521.79 892.86 533.28C901.03 542.74 912.65 559.48 904.3 572.2C894.57 587.01 868.5 583.66 853.97 581.22C840.02 578.89 825.8 574.76 812.78 569.3C769.38 551.1 733.83 515.17 709 475.85C707.64 473.7 706.29 471.51 704.96 469.28C680.29 485.39 672.36 518.13 679.16 548.03C709.45 546.39 745.5 558.32 768.97 576.21C781.21 585.54 792.82 598.1 797.64 613.04C800.77 622.74 800.58 634.81 790.45 640.17C780.51 645.42 768.61 641.76 758.53 638.88C740.54 633.73 725.06 623.11 711.52 610.37C694.89 594.71 679.82 575.05 672.07 553.49C663.11 556.28 655.12 561.34 649.52 569.83C643.34 579.19 642.03 588.98 643.48 598.77C654.9 602.13 665.8 607.09 674.67 612.39C716.69 639.72 755.14 673.72 786.77 712.64C798.56 727.15 810.34 742.85 817.75 760.14C823.33 773.16 826.25 794.42 805.96 793.38C794.56 792.8 781.63 787.56 772.43 781.24C756.89 770.56 742.28 757.89 728.68 744.87C692.39 710.12 664.75 666.46 642.62 621.55C638.93 614.07 635.4 605.97 633.83 597.67C632.7 597.51 631.57 597.32 630.43 597.2C624.02 596.54 617.45 596.66 611.16 598.17C594.82 602.09 584.59 615.11 579.64 630.6C578.76 633.36 577.94 636.15 577.14 638.96C590.14 647.58 600.7 659.82 610.34 672.79C630.06 699.34 647.94 730.87 655.26 763.4C662.24 794.4 643.16 830.77 607.04 823.59ZM643.69 600.01C644.9 607.01 647.45 613.99 650.64 620.82C663.25 647.8 679.35 674.9 696.52 699.19C713.05 722.58 732.77 743.57 754.54 762.15C762.45 768.91 770.6 775.45 778.97 781.62C786.47 787.14 795.9 793.99 805.49 789.21C825.1 779.44 802.7 745.83 795.2 734.44C762.32 684.54 714.84 642.14 665.03 609.75C666.12 610.46 667.49 610.73 668.91 610.94C667.52 610.72 666.16 610.43 665.03 609.75C659.38 606.38 653.26 603.64 647.13 601.27C646 600.83 644.84 600.42 643.69 600.01ZM680.04 551.61C681.52 557.12 683.5 562.5 685.98 567.63C698.22 592.95 720.81 616.7 744.77 631.29C754.69 637.33 760.75 640.86 771.42 639.99C777.78 639.48 784.08 637.01 787.43 631.29C795.04 618.28 784.91 600.72 776.87 590.57C761.16 570.76 736.38 556.28 711.51 552.2C701.52 550.56 690.42 549.9 680.04 551.61ZM711.05 465.84C713.98 471.03 717.07 476.08 720.23 480.98C750.43 527.67 801.24 577.8 860.08 580.26C875.96 580.92 900.64 577.17 897 555.74C893.92 537.6 877.25 523.28 863.67 512.3C827.42 483.01 778.03 452.59 729.57 460.09C722.69 461.16 716.54 463.14 711.05 465.84ZM651.61 313.89C679.37 305.41 705.35 289.28 726.4 270.65C745.76 253.52 762.04 232.93 774.13 210.08C785.57 188.48 796.39 164.33 799.01 139.76C800.28 127.88 799.61 112.87 789.3 104.87C788.38 104.16 787.28 103.67 786.37 102.97C784.39 102.85 781.74 102.68 781.3 102.71C775.24 103.03 769.31 104.82 763.77 107.23C733.17 120.52 712.37 152.82 695.42 180.02C672.96 216.04 649.47 260.39 650.65 304.1C650.74 307.4 651.08 310.66 651.61 313.89ZM788.58 103.07C788.57 103.1 787.64 103.04 786.44 102.97C787.34 103.44 788.28 103.72 788.58 103.07ZM564.26 264C578.33 256.86 591.1 244.23 598.46 231.71C604.75 221.02 611.94 192.89 598.67 183.33C580.99 185.53 571.56 220.2 568.39 233.3C566.07 242.85 564.4 253.43 564.26 264ZM540.7 76.42C540.05 75.87 539.59 75.55 539.54 75.69C539.4 76.21 539.94 76.39 540.7 76.42ZM497.7 233.49C509.23 219.94 519.07 205.04 526.78 190.45C539.87 165.7 549.8 136.78 551.22 108.65C551.67 99.73 551.24 89.2 545.99 81.54C545.73 81.17 543.03 78.47 541.21 76.86C541.2 76.86 541.2 76.86 541.2 76.86C539.87 77.14 538.54 77.21 537.21 77.57C520.43 82.13 511.79 100.92 506.55 115.78C499.48 135.84 494.59 156.9 492.64 178.1C490.96 196.35 491.15 216.07 497.7 233.49ZM408.67 283.95C427.52 249.73 431.87 209.27 417.69 170.95C406.59 140.94 373.77 85.09 335.19 114.38C303.34 138.55 310.93 189.07 326.89 219.78C338.13 241.4 355.34 259.99 375.92 273C386.32 279.57 396.69 283.56 408.67 283.95ZM340.65 340.06C339.79 337.08 338.81 334.15 337.65 331.31C321.74 292.47 296.38 254.13 267.74 223.55C261.36 216.74 254.55 210.17 246.81 204.93C243.41 202.62 239.83 200.56 236.08 198.86C235.43 198.57 233.19 197.77 231.64 197.19C230.56 196.98 229.4 196.75 228.88 196.7C216.77 195.44 204.53 200.04 200.96 212.63C195.42 232.17 208.93 254.92 219 270.51C233.97 293.67 253.44 312.87 277.88 325.9C297.16 336.18 318.75 342.2 340.65 340.06ZM283.75 444.88C269.62 408.49 245.79 373.73 217.97 347.82C200.03 331.11 179.01 317.43 155.45 316.91C138.04 316.52 119.48 323.08 111.56 339.71C92.25 380.27 144.56 421.97 175.69 436.77C205.76 451.07 240.95 452.74 273.46 447.15C276.92 446.55 280.36 445.79 283.75 444.88ZM296.1 524.42C289.29 515.53 281.4 507.51 272.32 500.88C249.58 484.3 222.61 480.67 195.02 482.28C164.64 484.05 117.56 500.5 139.14 539.34C158.4 574.01 206.66 586.62 242.31 574.02C263.26 566.63 286.86 549.06 295 527.71C295.42 526.62 295.77 525.52 296.1 524.42ZM245.21 752.39C245.48 752.57 245.68 752.74 245.74 752.9C245.66 752.67 245.46 752.51 245.21 752.39ZM325.44 614.51C286.95 634.09 253.83 673.87 241.48 713.88C237.87 725.6 234.6 740.6 242.92 750.97C243.02 751.09 243.19 751.22 243.39 751.35C245.91 750.6 248.62 750.47 251.17 749.5C259.84 746.22 267.68 740.25 274.36 733.94C304.15 705.79 318.99 661.59 324.48 621.92C324.82 619.5 325.15 617.03 325.44 614.51ZM334.39 826.99C335.07 827.32 335.71 827.62 335.71 827.61C335.8 827.31 335.17 827.12 334.39 826.99ZM422.87 648.8C390.6 671.58 364.65 703.19 345.56 737.5C334.57 757.24 321.39 781.27 322.01 804.64C322.16 810.46 323.43 816.49 327.06 821.18C328.7 823.29 330.7 824.61 332.8 826.2C332.88 826.26 333.33 826.49 333.85 826.74C344.46 826.54 354.26 824.81 363.25 818.62C375.91 809.89 384.45 794.23 391.4 780.95C410.29 744.86 425.02 700.79 423.9 659.62C423.8 655.91 423.46 652.3 422.87 648.8ZM511.23 653.66C502.56 662.6 495.11 672.87 488 682.84C469.39 708.96 450.63 736.67 444.93 768.95C443.69 775.94 443.02 783.64 445.28 790.5C446.19 793.25 447.53 795.85 449.51 797.98C450.6 799.15 451.87 799.98 453.12 800.94C453.45 801.18 453.94 801.41 454.43 801.6C455.68 801.58 457.59 801.62 458.16 801.56C460.24 801.38 462.28 800.91 464.26 800.27C467.97 799.08 471.41 797.16 474.58 794.9C483.49 788.55 490.32 779.44 495.82 770.1C513.95 739.3 528.26 688.84 511.23 653.66ZM567.82 633.66C569.26 629.14 570.9 624.75 572.79 620.55C584.11 595.36 609.08 591.39 633.6 596.31C632.58 590.05 632.72 583.7 634.8 577.42C640.25 560.97 654.3 551.71 670.55 548.92C665.29 531.79 664.78 513.58 671.85 495.3C677.96 479.51 688.64 469.35 701.57 463.43C684.74 433.64 672.21 397.9 685.41 365.6C676 361.68 667.42 356.12 660.41 348.61C652.44 340.07 647.34 330.63 644.44 320.69C633.21 322.83 621.83 323.58 610.59 322.37C601.49 321.38 591.99 318.97 583.44 315.68C568.8 310.04 560.6 298.28 557.1 283.22C556.26 279.64 555.67 275.99 555.28 272.31C544.22 273.31 531.89 270.02 521.87 265.7C511.19 261.1 503.16 254.5 497.21 246.57C478.43 266.03 455.48 282.91 428.66 286.12C425.21 286.54 421.76 286.71 418.32 286.67C413.75 294.9 408.38 302.76 402.24 310.12C393.03 321.17 381.63 333.39 367.96 338.77C362.26 341.01 356.22 342.28 350.07 342.84C352.61 351.68 354.05 360.82 353.81 370.4C353 401.78 337.25 429.87 307.81 442.65C303.12 444.69 298.3 446.39 293.39 447.8C296.39 455.42 299 463.15 301.1 470.97C305.83 488.56 311.17 508.1 306.02 526.21C305.94 526.49 305.83 526.76 305.75 527.04C313.51 537.18 319.81 548.41 324.99 560.07C328.7 568.41 333.06 577.44 334.77 586.46C335.85 592.18 336.36 598.11 336.41 604.14C355.35 598.85 375.33 599.17 395.44 606.66C409.37 611.85 422.1 622.6 428.42 636.28C433.37 633.45 438.44 630.84 443.63 628.53C456.18 622.95 467.28 621.3 479.3 623.8C478.98 623.59 479.25 623.69 479.81 623.92C483.52 624.72 487.31 625.91 491.27 627.51C499.53 630.86 506.08 635.69 511.24 641.54C523.34 631.39 537.21 624.94 552.51 628.32C553.92 628.64 555.29 629 556.65 629.39C556.75 629.42 556.85 629.44 556.95 629.47C560.76 630.57 564.36 632 567.82 633.66ZM611.82 821.45C632.75 818.45 646.49 799.22 647.61 778.85C648.46 763.48 642.4 747.5 636.66 733.56C623.33 701.17 603.44 665.84 576.16 642.52C569.36 668.01 566.15 695.17 565.25 721.22C564.26 749.8 565.02 828.15 611.82 821.45Z" />
			<path id="&lt;Path&gt;" class="shp17" d="M591.78 256.32C591.93 256.28 592.28 256.14 592.97 255.81C592.58 256 592.17 256.14 591.78 256.32Z" />
		</g>
		<g id="&lt;Group&gt;">
			<path id="&lt;Path&gt;" class="shp18" d="M388.42 923.8C387.2 922.37 386.53 921.16 386.41 920.19C386.4 919.9 386.49 919.55 386.67 919.16L398.27 899.34C398.65 898.84 399.22 898.58 400.01 898.55C402.25 898.49 404.58 899.74 407 902.31C408.11 903.55 408.73 904.66 408.85 905.63C408.86 905.92 408.77 906.27 408.59 906.66L396.85 926.49C396.47 926.99 395.94 927.3 395.26 927.41C393.11 927.47 390.83 926.27 388.42 923.8Z" />
			<path id="&lt;Compound Path&gt;" fill-rule="evenodd" class="shp18" d="M532.72 953.24C533.74 954.58 534.31 955.74 534.43 956.71C534.35 957.4 534.07 957.89 533.6 958.2C532.45 959.02 530.58 960.29 527.99 962.02C514.48 971.2 504.33 976.91 497.56 979.16C494.17 980.33 491.06 980.95 488.23 981.04C487.06 981.07 485.54 980.92 483.68 980.58C474.43 978.5 468.89 972.74 467.06 963.32C453.38 976.8 442.83 983.7 435.41 984.01L434.1 984.04C429.1 983.6 424.97 981.03 421.71 976.34C421.38 975.84 421.12 975.33 420.84 974.83C406.92 989.99 395.21 997.89 385.71 998.46C384.63 998.49 383.26 998.34 381.59 998C376.87 996.76 373.17 994.08 370.52 989.96C368.78 987.27 367.85 983.78 367.73 979.49C367.71 978.82 367.71 978.13 367.73 977.42C365.76 979.71 363.58 982.26 361.15 985.1C340.34 1009.23 325.87 1022.54 317.74 1025.02C315.89 1025.46 314.33 1025.51 313.05 1025.15C309.8 1024.07 307.1 1022.1 304.97 1019.23C301.1 1013.77 304.86 999.94 316.24 977.73C317.07 976.04 318.37 973.57 320.13 970.29C322.45 965.83 323.97 962.81 324.71 961.22C318.84 963.17 313.61 964.11 309.01 964.05C308.99 964.09 308.99 964.13 308.97 964.16C308.78 964.36 308.63 964.51 308.54 964.61C306.43 966.04 303.51 967.88 299.76 970.14C282.48 980.99 268.72 989.98 258.47 997.11C247.94 1032.19 236.43 1060.16 223.93 1081.04C219.74 1088.19 215.6 1094.02 211.53 1098.53C201.11 1109.97 190.9 1111.33 180.88 1102.63C151.87 1078.84 172.61 1042.25 243.11 992.86C244.16 992.04 245.88 990.82 248.28 989.19C252.65 974.8 255.75 963.38 257.56 954.93C244.88 972.88 234.19 983.49 225.5 986.76C216.89 989.94 210.63 987.97 206.72 980.85C206.14 979.64 205.65 978.34 205.21 976.98C203.63 978.23 201.89 979.58 199.98 981.04C178.27 997.59 160.64 1006.1 147.07 1006.58C145.32 1006.63 144.04 1006.62 143.26 1006.54C130.82 1005.24 123.78 999.77 122.13 990.15C121.91 989.08 121.78 988.01 121.75 986.93C121.49 978.05 125.03 968.52 132.36 958.35C139.03 949.07 146.09 943.11 153.54 940.45C155.19 939.92 156.74 939.58 158.2 939.44L158.79 939.42C163.38 939.29 167.34 941.18 170.67 945.09C172.8 947.67 173.9 950.33 173.98 953.06C173.93 955.02 173.5 956.84 172.67 958.52C171.74 960.3 170.3 962.16 168.36 964.06C166.41 965.98 164.26 967.75 161.91 969.38C159.56 971.01 157.07 972.59 154.43 974.13C151.78 975.67 149.26 977.07 146.85 978.31C144.45 979.55 142.25 980.64 140.28 981.57C138.3 982.51 136.73 983.19 135.57 983.61L133.69 984.4C132.15 985.22 131.43 987.44 131.54 991.05C131.73 994.47 132.77 996.49 134.64 997.12C136.51 997.65 138.52 997.89 140.67 997.83C152.97 997.48 170.01 988.83 191.81 971.9C196.9 967.95 201.42 964.15 205.41 960.48C206.88 956.78 209.36 953.25 212.87 949.9C219.81 943.25 228.25 939.45 238.19 938.48C241.21 938.3 244.05 938.37 246.69 938.68C248.26 939.02 249.95 939.86 251.75 941.17C253.06 939.28 254.56 936.94 256.24 934.16C258.1 931.17 261.14 931.53 265.35 935.22C266.56 936.35 267.51 937.4 268.23 938.36C270.77 942.1 269.56 954.29 264.58 974.95C264.23 976.33 263.87 977.66 263.52 978.94C272.34 973.12 281.26 967.39 290.29 961.76C291.95 960.73 293.36 959.85 294.63 959.05C290 955.11 288.23 949.67 289.31 942.74C290.21 936.56 292.85 931.75 297.25 928.3C298.68 927.18 300.13 926.41 301.58 925.98C305.55 924.69 309.44 925.95 313.26 929.75C315.38 931.94 316.76 934.24 317.42 936.66C318.32 941.03 317.31 946.54 314.37 953.16C315.14 952.95 316.55 952.42 318.57 951.58C323.4 949.68 326.5 948.71 327.87 948.68C332.47 948.94 335.76 951.24 337.74 955.57C338.89 958.47 335.73 967.36 328.24 982.22C320.57 997.59 316.05 1007.09 314.69 1010.75C313.97 1012.92 313.48 1014.69 313.23 1016.06C319.68 1012.85 332.23 1000.53 350.86 979.09C363.07 964.96 370.11 956.9 372.01 954.89C372.18 954.73 372.36 954.59 372.55 954.49C374.62 948.22 377.36 941.24 380.78 933.54C381.15 932.94 381.68 932.59 382.36 932.47C384.51 932.41 386.84 933.66 389.36 936.23C390.57 937.56 391.23 938.71 391.36 939.69C391.37 939.98 391.28 940.27 391.09 940.57C383.11 958.78 378.82 972.87 378.23 982.85C378.16 983.73 378.13 984.56 378.15 985.34C378.19 986.71 378.43 988.12 378.86 989.57L379.15 989.57C387.25 989.33 399.03 980.84 414.48 964.09C416.83 961.48 418.95 959.03 420.9 956.71C423.07 952.09 426.8 947.54 432.2 943.07C437.64 938.61 443.16 935.48 448.78 933.65C450.13 933.23 451.59 932.99 453.16 932.94C457.26 932.92 460.67 934.44 463.4 937.49C465.32 939.87 465.88 942.16 465.06 944.33C464.32 946.01 462.22 945.78 458.74 943.63C458.14 943.26 457.64 942.88 457.24 942.5C449.69 944.86 442.92 949.21 436.95 955.53C431.73 961.15 429.15 966.6 429.21 971.87C429.24 973.04 429.42 974.12 429.74 975.08C433.44 974.68 438.53 971.8 445.03 966.44C451.51 961.08 456.25 956.79 459.24 953.58C462.23 950.37 464.9 947.41 467.27 944.7L467.41 944.55C468.07 943.75 468.89 943.34 469.86 943.31C472.21 943.24 474.5 944.79 476.74 947.95C477.55 949.1 477.97 950.06 477.99 950.85C477.9 951.14 477.81 951.34 477.72 951.44C477.25 955.75 477.07 959.47 477.16 962.59C477.24 965.52 477.65 968.15 478.41 970.47C479.02 971.63 480.12 972.23 481.68 972.28C488.12 972.1 502.51 964.61 524.86 949.8C525.24 949.5 525.67 949.34 526.16 949.33C528.31 949.27 530.5 950.57 532.72 953.24ZM141.43 967.91C154.41 960.8 161.66 954.44 163.16 948.83C157.45 950.75 151.15 955.91 144.26 964.31C143.21 965.51 142.27 966.71 141.43 967.91ZM247.67 947.15C239.75 946.99 232.26 949.79 225.19 955.56C217.94 961.63 214.42 968.32 214.63 975.64C214.67 977.01 214.85 978.32 215.18 979.58C215.94 982.3 224.88 973.74 242 953.91C245.21 950.1 247.1 947.85 247.67 947.15ZM241.95 1008.86C209.33 1033.24 189.11 1053.94 181.29 1070.97C175.97 1082.84 177.3 1092.08 185.31 1098.7L185.91 1099.26C188.98 1100.64 193.08 1098.96 198.22 1094.22C199.36 1093.11 200.5 1091.96 201.64 1090.76C213.86 1077.12 226.61 1051.75 239.92 1014.63C240.64 1012.66 241.32 1010.74 241.95 1008.86ZM299.33 954.91C303.71 947.75 306.27 941.62 307.01 936.52C304.81 938.44 302.94 941.23 301.38 944.89C300.37 947.07 299.62 949.72 299.12 952.87C299.05 953.94 299.12 954.62 299.33 954.91Z" />
			<path id="&lt;Compound Path&gt;" fill-rule="evenodd" class="shp18" d="M1026.73 865.26C1025.95 865.17 1025.12 864.93 1024.24 864.55C1002.77 854.95 962.33 853.86 902.92 861.27C872.63 956.54 858.19 1012.76 859.59 1029.94C859.7 1031.6 858.68 1032.19 856.53 1031.72C855.85 1031.53 855.21 1031.29 854.62 1031C851.78 1029.66 849.96 1027.82 849.16 1025.48C849.06 1025.09 849.01 1024.8 849 1024.6C847.5 1007.33 860.94 953.85 889.32 864.16C879.38 879.55 869.03 893.56 858.15 906.73C855.28 910.31 852.66 913.38 850.26 916.03C850.24 916.05 850.22 916.07 850.21 916.09C850.2 916.09 850.2 916.09 850.2 916.1C833.89 934.13 827.7 933.13 818.8 948.22C820.19 949.87 821.2 951.39 821.84 952.78C825.2 960.14 821.75 969.61 811.46 981.17C811.4 981.32 811.32 981.42 811.22 981.46C807.45 985.59 804.53 988.13 802.45 989.08C798.21 990.79 793.54 989.92 788.44 986.48C787.12 985.52 786.15 984.34 785.51 982.95C782.38 975.84 788.32 963.56 803.32 946.1C793.95 939.09 788.33 934.62 786.45 932.72C785.73 931.98 785.14 931.25 784.56 930.53C780.21 936.48 776.05 941.68 772.06 946.13C768.34 950.71 765.03 954.26 762.19 956.7C759.05 959.46 755.98 961.53 752.96 962.91C752.23 963.25 751.31 963.57 750.25 963.89C747.88 964.94 745.59 965.61 743.41 965.87C742.34 965.97 740.96 965.89 739.27 965.65C734.49 964.69 730.64 962.24 727.75 958.28C725.85 955.7 724.72 952.27 724.35 947.99C724.29 947.32 724.25 946.63 724.23 945.92C722.4 948.32 720.37 950.99 718.11 953.97C698.76 979.29 685.09 993.43 677.12 996.38C675.3 996.93 673.75 997.07 672.45 996.79C669.14 995.9 666.33 994.09 664.03 991.35C659.85 986.13 662.79 972.1 672.85 949.26C673.58 947.53 674.73 944.98 676.29 941.61C678.34 937.02 679.68 933.91 680.33 932.28C674.37 934.66 669.05 935.9 664.33 936.04C664.28 936.09 664.26 936.16 664.2 936.19C661.81 937.97 657.54 941.34 651.41 946.28C633.82 960.37 620.58 969.77 611.68 974.47C604.64 978.12 598.55 980.18 593.39 980.63C592.42 980.71 591.2 980.72 589.72 980.65C583.3 980.14 578.09 977.17 574.09 971.73C572.2 969.15 570.92 966.37 570.27 963.39C570.12 962.81 570.01 962.09 569.93 961.21C569.22 953.04 572.26 943.61 579.07 932.92C585.64 922.83 592.87 915.92 600.78 912.19C603.33 911.09 605.72 910.44 607.96 910.24C613.23 909.88 617.56 911.85 620.98 916.16C622.09 917.63 622.72 919.24 622.87 920.99C623 922.45 622.45 925.64 621.21 930.55C621.06 931.05 620.95 931.45 620.88 931.75C620.47 932.77 619.84 933.37 618.97 933.54C616.83 933.73 614.47 932.46 611.88 929.75C610.36 928.12 609.7 926.75 609.9 925.66L611.42 919.5C605.97 921.05 599.9 926.24 593.23 935.06C585.66 944.94 581.5 953.93 580.74 962.03C580.57 963.42 580.53 964.7 580.63 965.86C580.94 968.29 581.71 970.33 582.93 971.99C584.22 972.17 585.45 972.21 586.62 972.1C596.05 971.28 611.77 962.16 633.78 944.74C635.71 943.3 638.5 941.09 642.17 938.12C645.34 935.55 647.96 933.45 650.07 931.8C645.3 928.14 643.23 922.85 643.9 915.92C644.43 909.69 646.79 904.73 650.98 901.03C652.34 899.84 653.74 898.98 655.16 898.46C659.05 896.94 663.01 897.97 667.05 901.54C669.29 903.6 670.81 905.82 671.6 908.2C672.76 912.51 672.07 918.06 669.53 924.85C670.29 924.58 671.66 923.98 673.64 923.02C678.35 920.84 681.38 919.69 682.74 919.57C687.35 919.56 690.77 921.66 693 925.88C694.33 928.7 691.69 937.76 685.09 953.04C678.33 968.83 674.38 978.59 673.24 982.31C672.65 984.52 672.27 986.32 672.09 987.7C678.35 984.12 690.14 971.08 707.49 948.58C718.84 933.76 725.4 925.3 727.17 923.18C727.33 923.01 727.5 922.86 727.69 922.75C729.39 916.37 731.72 909.24 734.67 901.35C735.01 900.73 735.52 900.35 736.19 900.19C738.33 900 740.73 901.11 743.39 903.53C744.68 904.79 745.41 905.9 745.6 906.86C745.62 907.16 745.55 907.46 745.38 907.77C738.48 926.41 735.03 940.73 735.03 950.73C735.01 951.61 735.03 952.44 735.1 953.22C735.22 954.58 735.54 955.98 736.05 957.4L736.34 957.38C740.31 957.03 745.05 954.62 750.56 950.19C757.54 943.15 766.94 931.08 778.79 913.92C779 913.55 779.34 913.32 779.69 913.1C780.79 906.38 784.46 898.67 790.8 889.94C791.13 889.56 791.5 889.27 791.91 889.08C794.3 887.98 797.43 888.23 801.31 889.83C802.98 890.74 804.08 891.63 804.59 892.47C804.81 893.22 804.75 893.78 804.43 894.17C796.78 904.65 793.23 912.95 793.78 919.08C793.93 921.05 794.41 922.94 795.23 924.73C797.34 929.05 802 934.02 809.21 939.62C816.23 932.14 823.71 925.02 831.57 918.18C846.03 902.71 859.78 885.17 872.78 865.47C868 866.19 863.22 866.99 858.44 867.86C853.66 868.72 849.3 869.52 845.35 870.23C841.4 870.95 837.62 871.66 834.01 872.37C830.4 873.09 827.26 873.72 824.58 874.28C821.9 874.84 819.56 875.32 817.56 875.73C815.56 876.13 814.02 876.44 812.95 876.64L811.34 877.1C809.39 877.6 807.14 876.59 804.58 874.07C804.29 873.78 804.04 873.54 803.84 873.35C803.64 873.06 803.42 872.79 803.18 872.55C802.93 872.31 802.73 872.04 802.58 871.75C802.44 871.45 802.31 871.21 802.21 871.02C802.11 870.82 802.04 870.6 801.99 870.36C801.94 870.12 801.91 869.9 801.91 869.7C801.91 869.51 801.93 869.33 801.98 869.19C802.03 869.04 802.12 868.89 802.27 868.74C802.41 868.6 802.56 868.47 802.7 868.38C802.85 868.28 803.02 868.23 803.22 868.23L803.95 868.07C828.9 862.6 854.21 858.05 879.86 854.43C890.37 837.55 900.58 819.01 910.47 798.81C910.67 798.51 910.81 798.32 910.91 798.22L912.34 793.96C912.91 792.39 914.67 792.43 917.61 794.06C918 794.26 918.3 794.4 918.5 794.49C921.24 796.33 922.68 798.22 922.79 800.17C922.69 800.47 922.65 800.71 922.65 800.91L921.22 805.17C915.69 821.52 910.63 836.84 906.06 851.14C961.87 845.12 1000.75 847.01 1022.71 856.79C1025.55 858.04 1027.42 859.88 1028.32 862.32C1028.42 862.61 1028.52 862.85 1028.62 863.05C1028.93 864.51 1028.29 865.25 1026.73 865.26ZM661.2 908.67C659.13 910.71 657.42 913.61 656.08 917.35C655.2 919.58 654.6 922.28 654.29 925.45C654.29 926.53 654.39 927.2 654.62 927.48C658.58 920.07 660.77 913.8 661.2 908.67ZM807.9 961.87C805.43 965.53 803.26 969.17 801.4 972.79C804.55 968.7 806.72 965.06 807.9 961.87Z" />
			<path id="&lt;Path&gt;" class="shp18" d="M1006.42 933.29C1007.51 934.57 1008.15 935.69 1008.33 936.65C1008.29 937.34 1008.04 937.85 1007.58 938.18C1006.48 939.07 1004.69 940.45 1002.21 942.33C989.26 952.29 979.47 958.59 972.84 961.22C969.53 962.6 966.46 963.4 963.64 963.65C962.47 963.75 960.95 963.69 959.06 963.46C949.72 961.93 943.85 956.51 941.47 947.21C928.6 961.47 918.47 968.98 911.09 969.72L909.77 969.84C904.76 969.69 900.49 967.36 896.96 962.87C895.85 961.4 894.98 959.86 894.35 958.25C893.83 956.82 893.5 955.23 893.34 953.48C892.64 945.41 896.68 937.26 905.47 929.04C910.64 924.27 915.97 920.82 921.47 918.67C922.8 918.16 924.24 917.84 925.8 917.7C929.89 917.44 933.39 918.75 936.29 921.64C938.35 923.91 939.03 926.15 938.35 928.37C937.71 930.09 935.6 929.98 932 928.04C931.38 927.7 930.85 927.36 930.43 927C923.03 929.81 916.54 934.54 910.94 941.21C906.07 947.12 903.81 952.71 904.18 957.97C904.28 959.14 904.52 960.2 904.9 961.15C908.57 960.53 913.48 957.36 919.65 951.62C925.81 945.88 930.29 941.33 933.08 937.94C935.88 934.56 938.37 931.45 940.57 928.61L940.71 928.45C941.32 927.62 942.11 927.15 943.09 927.07C945.42 926.86 947.8 928.27 950.22 931.3C951.1 932.4 951.57 933.33 951.64 934.11C951.57 934.41 951.49 934.62 951.4 934.72C951.19 939.06 951.23 942.78 951.5 945.89C951.75 948.81 952.32 951.4 953.21 953.68C953.89 954.8 955.02 955.34 956.59 955.3C963.01 954.73 976.93 946.41 998.36 930.32C998.73 929.99 999.15 929.81 999.64 929.76C1001.78 929.58 1004.04 930.75 1006.42 933.29Z" />
			<path id="&lt;Path&gt;" class="shp18" d="M953.28 889.99L953.25 890.33C953.22 890.74 953.17 891.1 953.1 891.38L952.87 891.95C950.06 896.65 946.77 899.2 943.09 899.52C940.17 899.78 936.4 898.32 931.59 895.08L930.99 894.66C930.1 894.14 929.56 893.94 929.27 893.86C928.62 894.13 927.11 895.16 924.78 899.11L924.41 899.56C923.84 900.09 923.12 900.39 922.28 900.46C922.1 900.47 921.92 900.48 921.74 900.48C919.78 900.48 917.71 899.57 915.44 897.69C914.39 896.71 913.82 895.86 913.59 895L913.5 894.68L913.53 894.34C913.55 893.93 913.61 893.58 913.67 893.29L913.91 892.7C916.99 887.62 920.44 884.82 924.15 884.37C927.16 884.11 930.91 885.56 935.72 888.8L936.3 889.21C937.15 889.77 937.62 889.97 937.84 890.04C938.42 889.8 939.77 888.87 941.99 885.36L942.34 884.95C942.9 884.44 943.63 884.13 944.45 884.06C946.6 883.87 948.85 884.84 951.37 887C952.38 887.96 952.96 888.81 953.19 889.66L953.28 889.99Z" />
			<path id="&lt;Path&gt;" class="shp18" d="M741.56 891.62C740.38 890.43 739.7 889.42 739.54 888.57C739.52 888.32 739.58 888.01 739.73 887.66L749.26 869.73C749.58 869.27 750.09 869.01 750.81 868.95C752.85 868.78 755.04 869.75 757.38 871.87C758.46 872.89 759.08 873.82 759.24 874.67C759.26 874.92 759.2 875.23 759.05 875.58L749.38 893.52C749.07 893.98 748.6 894.28 747.99 894.41C746.03 894.58 743.89 893.65 741.56 891.62Z" />
			<path id="&lt;Compound Path&gt;" fill-rule="evenodd" class="shp18" d="M134.77 1081.68C136.26 1084.54 138 1087.21 140 1089.56C138.5 1089.29 137.02 1088.93 135.55 1088.47C127.96 1085.88 121.2 1079.11 115.27 1068.15C106.08 1051.17 99.56 1026.85 95.71 995.2C95.26 991.6 94.91 988.21 94.64 985.02C93.83 985.91 92.86 986.98 91.69 988.26C83.67 996.09 81.36 997.52 79.44 998.6C75.65 1000.47 74.95 1000.21 72.21 1000.95C71.08 1001.26 69.57 1001.47 67.68 1001.58C58.2 1001.72 51.47 997.43 47.48 988.69C37.34 1005.01 28.7 1014.19 21.57 1016.23L20.29 1016.57C15.33 1017.31 10.72 1015.78 6.45 1011.98C5.1 1010.73 3.97 1009.37 3.06 1007.89C2.3 1006.58 1.69 1005.08 1.23 1003.38C-0.9 995.56 1.64 986.83 8.84 977.18C13.08 971.58 17.72 967.23 22.75 964.14C23.97 963.41 25.33 962.84 26.84 962.43C30.82 961.44 34.5 962.12 37.86 964.44C40.29 966.31 41.36 968.4 41.08 970.7C40.76 972.51 38.66 972.78 34.77 971.5C34.1 971.28 33.53 971.03 33.05 970.76C26.26 974.83 20.7 980.64 16.38 988.19C12.63 994.87 11.4 1000.77 12.69 1005.89C12.99 1007.02 13.42 1008.02 13.96 1008.88C17.46 1007.63 21.74 1003.63 26.79 996.9C31.84 990.16 35.44 984.88 37.59 981.06C39.74 977.24 41.65 973.73 43.31 970.55L43.42 970.37C43.87 969.44 44.57 968.84 45.51 968.59C47.77 967.97 50.36 968.94 53.28 971.49C54.34 972.41 54.98 973.25 55.18 974.01C55.16 974.31 55.12 974.53 55.05 974.65C55.61 978.95 56.3 982.61 57.12 985.62C57.89 988.45 58.91 990.9 60.18 992.99C61.06 993.96 62.19 994.5 64.11 994.58C65.42 994.64 66.59 994.8 69.78 992.45C77.81 985.17 84.95 976.27 93.41 964.11C91.18 929.19 92.34 901.57 96.91 881.23C99.94 868.02 104.31 859.22 110.02 854.83C111.01 854.09 111.78 853.57 112.32 853.28C117.73 850.36 123.25 850.51 128.89 853.75C132.37 855.75 135.12 858.61 137.12 862.32C138.92 865.83 139.89 869.45 140.01 873.18C140.48 887.7 134.48 908.16 122.02 934.56C115.52 948.36 109.74 958.97 104.67 966.4C105.15 980.01 107.19 996.78 110.78 1016.69C115.22 1041.13 120.58 1059.14 126.84 1070.72C129.2 1074.98 131.63 1078.24 134.11 1080.56C134.33 1080.94 134.54 1081.32 134.77 1081.68ZM104.22 947.03C113.29 930.95 119.99 914.85 124.34 898.72C127.5 887.04 128.73 877.14 128.03 869.03C127.68 865.43 126.94 862.59 125.81 860.5C125.1 859.19 124.41 858.37 123.73 858.04C122.81 857.63 121.89 857.68 120.96 858.18C118.26 859.65 115.57 863.15 112.88 868.7C112.51 869.49 112.26 870.13 112.12 870.61C107.72 883.87 105.12 904.43 104.34 932.3C104.22 937.25 104.18 942.17 104.22 947.03Z" />
		</g>
	</g>
</svg>